<?xml version="1.0" encoding="utf-8"?>
<!-- Generator: Adobe Illustrator 16.0.0, SVG Export Plug-In . SVG Version: 6.00 Build 0)  -->
<!DOCTYPE svg PUBLIC "-//W3C//DTD SVG 1.0//EN" "http://www.w3.org/TR/2001/REC-SVG-20010904/DTD/svg10.dtd">
<svg version="1.0" id="Calque_1" xmlns="http://www.w3.org/2000/svg" xmlns:xlink="http://www.w3.org/1999/xlink" x="0px" y="0px"
	 width="368px" height="68px" viewBox="0 0 368 68" enable-background="new 0 0 368 68" xml:space="preserve">
<path fill="#FFDD00" d="M29.282,38.458c0.276,0.732-0.093,1.55-0.824,1.827L9.637,47.397c-0.731,0.276-1.55-0.093-1.826-0.825
	L5.092,39.38c-0.276-0.732,0.093-1.55,0.824-1.827l18.821-7.113c0.731-0.276,1.55,0.093,1.826,0.825L29.282,38.458z"/>
<rect x="83.928" y="6.144" fill="#FFDD00" width="279.082" height="44.314"/>
<g>
	<path fill="#FFFFFF" d="M96.739,38.139h-3.572l4.806-27.302h8.335c5.316,0,7.314,2.551,7.314,6.166
		c-0.042,5.443-3.402,10.419-10.164,10.419h-4.806L96.739,38.139z M103.756,24.616c4.337,0,6.464-3.53,6.421-7.059
		c0-2.296-1.276-3.913-4.423-3.913h-4.72L99.12,24.616H103.756z"/>
	<path fill="#FFFFFF" d="M127.063,33.164c-0.212,1.191-0.425,3.317,0.085,4.21l-3.232,0.851c-0.298-0.51-0.425-1.531-0.468-2.509
		h-0.042c-1.361,1.743-3.955,2.849-6.549,2.849c-2.892,0-4.465-1.531-4.465-3.87c0-3.189,2.168-5.698,6.719-6.761
		c1.829-0.468,3.955-0.723,5.528-0.851c0.042-0.255,0.042-0.511,0.042-0.766c0-1.786-0.893-3.104-3.785-3.104
		c-1.488,0-3.487,0.468-5.103,1.233l-0.383-2.084c1.786-0.808,4.083-1.361,6.294-1.361c5.656,0,6.932,3.104,6.124,7.697
		L127.063,33.164z M124.426,28.996c-1.19,0.17-2.807,0.34-4.21,0.68c-3.615,0.893-4.508,2.679-4.508,4.423
		c0,1.574,1.021,2.381,2.807,2.381c2.424,0,4.423-1.658,5.231-3.7C123.746,32.781,124.383,29.293,124.426,28.996z"/>
	<path fill="#FFFFFF" d="M146.669,22.617c0.936,0.553,1.191,1.105,0.936,2.381c-0.213,1.191-2.296,12.928-2.509,14.332
		c-1.021,5.826-4.635,8.633-9.568,8.633c-2.977,0-5.656-0.723-7.272-1.786c0.298-0.51,1.105-1.829,1.446-2.467
		c1.616,0.978,3.487,1.574,5.699,1.574c3.87,0,5.656-2.042,6.464-6.464c0.042-0.34,0.51-2.977,0.638-3.53h-0.085
		c-0.936,1.488-3.402,3.147-6.209,3.147c-3.955,0-5.698-2.594-5.698-5.954c-0.042-6.422,4.083-11.482,10.036-11.482
		C143.522,21.001,145.309,21.809,146.669,22.617z M143.565,24.573c-0.425-0.766-1.871-1.276-3.36-1.276
		c-3.572,0-6.464,2.85-6.464,8.378c0,2.849,1.361,4.337,3.572,4.337c2.552,0,5.401-2.254,6.039-5.996l0.425-2.254
		C144.033,26.274,143.99,25.296,143.565,24.573z"/>
	<path fill="#FFFFFF" d="M166.02,27.167c0,0.638-0.042,1.318-0.17,1.914l-12.29,1.744c0,0.212-0.042,0.468-0.042,0.68
		c0,2.764,1.658,4.806,4.72,4.806c1.701,0,3.53-0.51,4.806-1.446l0.893,1.786c-1.531,1.19-3.87,1.914-6.379,1.914
		c-4.933,0-7.4-2.892-7.4-6.762c0-5.656,3.87-10.802,9.654-10.802C164.489,21.001,166.02,24.105,166.02,27.167z M153.815,28.826
		l8.973-1.275c0.042-0.425,0.042-0.851,0.042-1.233c-0.127-2.126-1.276-3.232-3.317-3.232
		C156.792,23.085,154.496,25.211,153.815,28.826z"/>
	<path fill="#FFFFFF" d="M179.8,23.936c-0.68-0.383-1.999-0.893-3.657-0.893c-2.551,0-3.615,1.19-3.615,2.594
		c0,0.723,0.425,1.276,1.489,1.829c1.446,0.723,2.807,1.276,3.827,1.872c1.573,0.85,2.126,2.041,2.169,3.274
		c0,3.274-2.849,5.954-7.655,5.954c-2.466,0-4.763-0.808-5.911-1.829c0.17-0.213,1.233-1.403,1.446-1.701
		c0.936,0.723,2.892,1.403,4.806,1.446c2.722,0,3.997-1.403,3.955-2.934c0-0.595-0.34-1.191-1.616-1.829
		c-0.766-0.383-2.849-1.276-3.53-1.659c-1.573-0.893-2.211-2.083-2.211-3.402c0.042-3.232,2.807-5.656,7.017-5.656
		c1.914,0,3.742,0.425,4.805,1.106L179.8,23.936z"/>
</g>
<g>
	<g>
		<path d="M203.469,14.118v16.434c0,0.204,0,0.408,0,0.612s-0.012,0.408-0.034,0.612c0,0.182-0.017,0.448-0.052,0.8
			c-0.033,0.352-0.113,0.749-0.237,1.191c-0.125,0.442-0.306,0.907-0.544,1.395s-0.574,0.947-1.004,1.378
			c-0.477,0.499-1.225,0.981-2.246,1.446c-1.021,0.465-2.359,0.698-4.015,0.698c-0.431,0-0.823-0.017-1.174-0.051
			c-0.353-0.034-0.698-0.074-1.038-0.119c-0.34-0.046-0.691-0.108-1.055-0.188c-0.363-0.08-0.748-0.165-1.156-0.255l0.033-4.968
			c0.022,0,0.153,0.023,0.392,0.068c0.238,0.046,0.532,0.091,0.885,0.136c0.351,0.046,0.72,0.091,1.105,0.136
			s0.737,0.068,1.055,0.068c0.113,0,0.301-0.011,0.562-0.034c0.261-0.022,0.545-0.085,0.851-0.187s0.601-0.266,0.885-0.493
			c0.283-0.227,0.493-0.556,0.63-0.987c0.113-0.294,0.175-0.606,0.187-0.936c0.011-0.329,0.017-0.516,0.017-0.562V14.118H203.469z"
			/>
		<path d="M223.543,14.118l11.603,24.021h-6.737l-2.041-4.525H214.05l-2.042,4.525h-6.566l11.603-24.021H223.543z M215.989,29.429
			h8.438l-3.572-7.859c-0.068-0.159-0.131-0.295-0.188-0.409c-0.057-0.113-0.107-0.232-0.153-0.357
			c-0.046-0.125-0.091-0.272-0.136-0.442c-0.046-0.17-0.092-0.391-0.137-0.664c-0.113,0.363-0.204,0.658-0.271,0.885
			c-0.068,0.227-0.182,0.51-0.341,0.851L215.989,29.429z"/>
		<path d="M243.719,14.118v14.154c0.023,0.454,0.057,0.891,0.103,1.31c0.046,0.42,0.136,0.822,0.272,1.208s0.323,0.743,0.562,1.072
			c0.237,0.329,0.562,0.641,0.97,0.936c0.477,0.34,0.992,0.601,1.548,0.783s1.077,0.306,1.565,0.374
			c0.487,0.068,0.924,0.108,1.31,0.119c0.386,0.012,0.646,0.017,0.782,0.017c0.113,0,0.335-0.005,0.664-0.017
			c0.328-0.011,0.703-0.045,1.123-0.102c0.419-0.057,0.873-0.147,1.361-0.272c0.486-0.124,0.936-0.312,1.344-0.561
			c0.566-0.317,0.998-0.658,1.293-1.021c0.294-0.362,0.498-0.658,0.611-0.885c0.137-0.272,0.227-0.544,0.273-0.816
			c0.045-0.272,0.09-0.703,0.135-1.293V14.118h5.989v13.984c0,0.567-0.012,1.111-0.034,1.633c-0.023,0.522-0.074,1.027-0.153,1.514
			c-0.079,0.488-0.198,0.976-0.356,1.463c-0.16,0.488-0.387,0.97-0.682,1.446c-0.113,0.159-0.283,0.397-0.51,0.714
			c-0.227,0.318-0.533,0.646-0.919,0.987c-0.658,0.59-1.401,1.078-2.229,1.463c-0.828,0.386-1.69,0.703-2.586,0.953
			c-0.896,0.249-1.81,0.425-2.739,0.527s-1.803,0.153-2.619,0.153c-0.387,0-1.004-0.022-1.854-0.068
			c-0.851-0.046-1.798-0.182-2.841-0.408c-1.203-0.272-2.24-0.618-3.113-1.038c-0.874-0.42-1.611-0.879-2.212-1.378
			c-0.602-0.499-1.095-1.015-1.479-1.548c-0.387-0.533-0.682-1.049-0.885-1.548c-0.137-0.294-0.244-0.595-0.324-0.901
			c-0.079-0.306-0.147-0.646-0.203-1.021c-0.058-0.374-0.098-0.799-0.119-1.276c-0.023-0.476-0.035-1.043-0.035-1.701v-13.95
			H243.719z"/>
		<path d="M276.417,14.118l11.772,13.406c0.59,0.681,1.157,1.35,1.701,2.007c0.249,0.318,0.499,0.625,0.748,0.919
			c0.25,0.295,0.499,0.601,0.749,0.918c-0.114-1.021-0.182-2.042-0.204-3.062c-0.022-0.317-0.034-0.635-0.034-0.953
			c0-0.317,0-0.635,0-0.953V14.118h5.716v24.021h-5.92l-11.942-13.542c-0.522-0.635-1.038-1.264-1.548-1.888
			c-0.511-0.624-1.026-1.253-1.547-1.888c0.045,0.34,0.078,0.686,0.102,1.038c0.021,0.352,0.045,0.697,0.066,1.038
			c0.023,0.34,0.035,0.681,0.035,1.021s0,0.669,0,0.986v13.236h-5.683V14.118H276.417z"/>
		<path d="M326.229,14.118v4.321h-16.366v5.41h15.822v4.287h-15.822v5.716h17.047v4.287h-23.137V14.118H326.229z"/>
		<path d="M349.467,20.548c-0.228-0.385-0.408-0.646-0.545-0.783c-0.386-0.43-0.833-0.782-1.344-1.055
			c-0.511-0.272-1.055-0.487-1.633-0.646c-0.579-0.158-1.163-0.266-1.753-0.323c-0.59-0.056-1.146-0.085-1.667-0.085
			c-0.182,0-0.448,0.006-0.8,0.017c-0.352,0.012-0.754,0.051-1.208,0.119c-0.045,0-0.249,0.029-0.612,0.085
			c-0.363,0.057-0.748,0.176-1.156,0.357s-0.777,0.448-1.106,0.799c-0.329,0.352-0.493,0.823-0.493,1.412
			c0,0.612,0.187,1.066,0.56,1.361c0.372,0.295,0.818,0.533,1.339,0.715c0.429,0.136,0.988,0.272,1.678,0.408
			c0.688,0.136,1.406,0.267,2.151,0.391c0.746,0.125,1.469,0.244,2.17,0.357c0.7,0.114,1.265,0.216,1.694,0.306
			c0.858,0.159,1.515,0.289,1.966,0.391c0.452,0.102,0.881,0.221,1.288,0.357c0.339,0.114,0.785,0.289,1.339,0.527
			s1.085,0.59,1.593,1.055c0.509,0.465,0.949,1.066,1.322,1.803c0.373,0.738,0.56,1.662,0.56,2.773c0,0.544-0.067,1.151-0.202,1.82
			s-0.403,1.338-0.808,2.007c-0.403,0.669-0.969,1.299-1.697,1.888c-0.729,0.59-1.698,1.078-2.908,1.463
			c-0.657,0.204-1.314,0.357-1.973,0.459s-1.327,0.188-2.008,0.255c-0.862,0.068-1.713,0.102-2.552,0.102
			c-1.066,0-2.024-0.051-2.875-0.153s-1.61-0.238-2.279-0.408c-0.669-0.17-1.265-0.362-1.786-0.578
			c-0.522-0.215-0.999-0.437-1.43-0.664c-0.136-0.068-0.356-0.198-0.663-0.392c-0.307-0.192-0.642-0.425-1.004-0.697
			c-0.34-0.272-0.646-0.55-0.918-0.833c-0.272-0.284-0.522-0.562-0.749-0.833c-0.227-0.272-0.408-0.511-0.544-0.715
			c-0.137-0.204-0.238-0.362-0.307-0.476c-0.114-0.182-0.216-0.352-0.307-0.511c-0.091-0.158-0.182-0.328-0.271-0.51l5.478-1.395
			c0.362,0.749,0.851,1.367,1.463,1.854s1.281,0.868,2.008,1.14c0.726,0.272,1.491,0.465,2.297,0.579
			c0.805,0.114,1.57,0.17,2.296,0.17c0.068,0,0.284-0.005,0.646-0.017c0.363-0.011,0.788-0.051,1.276-0.119
			c0.487-0.068,1.004-0.176,1.548-0.323c0.545-0.147,1.021-0.357,1.43-0.63c0.158-0.113,0.391-0.34,0.697-0.68
			c0.306-0.34,0.459-0.805,0.459-1.395c0-0.681-0.261-1.213-0.782-1.599c-0.386-0.294-0.959-0.516-1.719-0.664
			c-0.76-0.147-1.684-0.312-2.772-0.493c-1.111-0.159-2.099-0.312-2.96-0.459c-0.862-0.147-1.646-0.289-2.348-0.425
			c-0.704-0.136-1.333-0.29-1.889-0.459c-0.557-0.17-1.072-0.368-1.548-0.595c-0.272-0.136-0.618-0.334-1.038-0.596
			c-0.42-0.26-0.834-0.624-1.242-1.089c-0.408-0.464-0.76-1.026-1.055-1.684c-0.295-0.658-0.442-1.44-0.442-2.348
			c0-0.794,0.107-1.497,0.323-2.109c0.216-0.613,0.477-1.14,0.783-1.583c0.306-0.442,0.623-0.805,0.952-1.088
			s0.618-0.505,0.868-0.664c0.771-0.521,1.809-0.998,3.113-1.429c1.304-0.431,3.033-0.646,5.188-0.646
			c1.021,0,1.928,0.04,2.722,0.119c0.794,0.08,1.509,0.193,2.144,0.34c0.635,0.148,1.202,0.312,1.701,0.493
			c0.499,0.182,0.964,0.375,1.396,0.579c0.317,0.136,0.742,0.363,1.275,0.68c0.533,0.318,1.106,0.771,1.719,1.361
			c0.385,0.386,0.686,0.731,0.901,1.038s0.459,0.687,0.731,1.14L349.467,20.548z"/>
	</g>
</g>
<g>
	<path d="M90.387,63.388h-0.761l-0.833-2.224h-3.254l-0.883,2.224H83.93l3.016-7.401h0.568L90.387,63.388z M88.564,60.581
		l-1.371-3.65l-1.417,3.65H88.564z"/>
	<path d="M97.599,63.388h-0.696l-4.254-6.219v6.219h-0.706v-7.401h0.695l4.254,6.219v-6.219h0.706V63.388z"/>
	<path d="M105.698,63.388h-0.696l-4.254-6.219v6.219h-0.706v-7.401h0.695l4.254,6.219v-6.219h0.706V63.388z"/>
	<path d="M113.499,60.987c0,0.839-0.247,1.484-0.741,1.935c-0.474,0.437-1.135,0.655-1.985,0.655c-0.842,0-1.502-0.218-1.979-0.655
		c-0.498-0.457-0.747-1.102-0.747-1.935v-5h0.711v4.98c0,0.64,0.176,1.127,0.528,1.462s0.848,0.502,1.487,0.502
		c1.344,0,2.016-0.655,2.016-1.964v-4.98h0.71V60.987z"/>
	<path d="M121.42,63.388h-0.761l-0.833-2.224h-3.254l-0.883,2.224h-0.726l3.016-7.401h0.568L121.42,63.388z M119.598,60.581
		l-1.371-3.65l-1.417,3.65H119.598z"/>
	<path d="M123.652,63.388h-0.706v-7.401h0.706V63.388z"/>
	<path d="M131.544,63.388h-0.894l-2.351-3.284h-1.685v3.284h-0.706v-7.401h3.274c0.653,0,1.174,0.179,1.564,0.538
		c0.399,0.369,0.599,0.875,0.599,1.518c0,0.649-0.201,1.154-0.604,1.513c-0.389,0.345-0.912,0.518-1.568,0.518L131.544,63.388z
		 M130.64,58.043c0-0.941-0.572-1.412-1.716-1.412h-2.31v2.828h2.198C130.031,59.459,130.64,58.987,130.64,58.043z"/>
	<path d="M138.101,63.388h-5.061v-7.401h4.843v0.645h-4.137v2.62h3.736v0.645h-3.736v2.848h4.355V63.388z"/>
	<path d="M145.241,61.307c0,0.772-0.271,1.354-0.812,1.747c-0.477,0.349-1.117,0.523-1.919,0.523c-1.611,0-2.54-0.684-2.787-2.051
		l0.706-0.361c0,1.178,0.693,1.767,2.081,1.767c0.521,0,0.973-0.118,1.355-0.355c0.447-0.278,0.67-0.662,0.67-1.152
		c0-0.65-0.38-1.093-1.142-1.33l-2.122-0.665c-0.768-0.355-1.152-0.938-1.152-1.747c0-0.619,0.262-1.102,0.787-1.447
		c0.443-0.291,0.968-0.437,1.574-0.437c1.374,0,2.254,0.552,2.64,1.655l-0.655,0.35c-0.291-0.907-0.953-1.36-1.985-1.36
		c-0.423,0-0.794,0.103-1.112,0.31c-0.362,0.237-0.543,0.546-0.543,0.929c0,0.626,0.38,1.053,1.142,1.279l2.122,0.62
		C144.857,59.93,145.241,60.505,145.241,61.307z"/>
	<path d="M156.771,59.688c0,0.955-0.219,1.765-0.655,2.432c-0.555,0.846-1.377,1.269-2.467,1.269h-2.711v-7.401h2.909
		c1.025,0,1.795,0.413,2.31,1.239C156.566,57.882,156.771,58.703,156.771,59.688z M156.065,59.688c0-0.809-0.167-1.487-0.502-2.036
		c-0.41-0.68-1.012-1.021-1.807-1.021h-2.112v6.112h1.965c0.849,0,1.487-0.322,1.914-0.965
		C155.884,61.234,156.065,60.537,156.065,59.688z"/>
	<path d="M163.744,63.388h-5.061v-7.401h4.843v0.645h-4.137v2.62h3.736v0.645h-3.736v2.848h4.355V63.388z"/>
	<path d="M170.884,61.307c0,0.772-0.271,1.354-0.812,1.747c-0.477,0.349-1.117,0.523-1.919,0.523c-1.611,0-2.54-0.684-2.787-2.051
		l0.706-0.361c0,1.178,0.693,1.767,2.081,1.767c0.521,0,0.973-0.118,1.355-0.355c0.447-0.278,0.67-0.662,0.67-1.152
		c0-0.65-0.38-1.093-1.142-1.33l-2.122-0.665c-0.768-0.355-1.152-0.938-1.152-1.747c0-0.619,0.262-1.102,0.787-1.447
		c0.443-0.291,0.968-0.437,1.574-0.437c1.374,0,2.254,0.552,2.64,1.655l-0.655,0.35c-0.291-0.907-0.953-1.36-1.985-1.36
		c-0.423,0-0.794,0.103-1.112,0.31c-0.362,0.237-0.543,0.546-0.543,0.929c0,0.626,0.38,1.053,1.142,1.279l2.122,0.62
		C170.5,59.93,170.884,60.505,170.884,61.307z"/>
	<path d="M182.154,58.002c0,1.351-0.75,2.026-2.249,2.026h-2.62v3.36h-0.706v-7.401h3.65c0.667,0,1.169,0.218,1.508,0.655
		C182.016,57,182.154,57.454,182.154,58.002z M181.444,58.002c0-0.358-0.069-0.64-0.208-0.842c-0.241-0.352-0.677-0.528-1.31-0.528
		h-2.64v2.757h2.351C180.841,59.388,181.444,58.926,181.444,58.002z"/>
	<path d="M189.387,63.388h-0.895l-2.35-3.284h-1.686v3.284h-0.706v-7.401h3.274c0.653,0,1.174,0.179,1.564,0.538
		c0.398,0.369,0.598,0.875,0.598,1.518c0,0.649-0.201,1.154-0.604,1.513c-0.389,0.345-0.912,0.518-1.568,0.518L189.387,63.388z
		 M188.482,58.043c0-0.941-0.572-1.412-1.716-1.412h-2.31v2.828h2.197C187.873,59.459,188.482,58.987,188.482,58.043z"/>
	<path d="M197.07,59.688c0,1.076-0.258,1.97-0.771,2.68c-0.579,0.806-1.39,1.208-2.432,1.208c-1.033,0-1.84-0.403-2.422-1.208
		c-0.521-0.714-0.781-1.607-0.781-2.68c0-1.076,0.256-1.97,0.771-2.68c0.578-0.806,1.389-1.208,2.432-1.208
		c1.031,0,1.839,0.403,2.421,1.208C196.809,57.721,197.07,58.615,197.07,59.688z M196.359,59.688c0-0.866-0.193-1.597-0.579-2.193
		c-0.456-0.701-1.095-1.051-1.913-1.051c-0.816,0-1.451,0.347-1.904,1.041c-0.396,0.606-0.594,1.34-0.594,2.203
		c0,0.866,0.194,1.597,0.584,2.193c0.457,0.701,1.094,1.051,1.914,1.051c0.814,0,1.449-0.347,1.902-1.041
		C196.162,61.285,196.359,60.55,196.359,59.688z"/>
	<path d="M203.805,56.631h-4.117v2.472h3.68v0.645h-3.68v3.64h-0.705v-7.401h4.822V56.631z"/>
	<path d="M210.604,63.388h-5.062v-7.401h4.844v0.645h-4.138v2.62h3.736v0.645h-3.736v2.848h4.355V63.388z"/>
	<path d="M217.744,61.307c0,0.772-0.27,1.354-0.812,1.747c-0.478,0.349-1.116,0.523-1.919,0.523c-1.611,0-2.54-0.684-2.787-2.051
		l0.706-0.361c0,1.178,0.693,1.767,2.081,1.767c0.521,0,0.973-0.118,1.355-0.355c0.447-0.278,0.67-0.662,0.67-1.152
		c0-0.65-0.381-1.093-1.143-1.33l-2.121-0.665c-0.769-0.355-1.152-0.938-1.152-1.747c0-0.619,0.262-1.102,0.787-1.447
		c0.443-0.291,0.967-0.437,1.573-0.437c1.374,0,2.254,0.552,2.64,1.655l-0.654,0.35c-0.291-0.907-0.953-1.36-1.985-1.36
		c-0.423,0-0.794,0.103-1.112,0.31c-0.361,0.237-0.543,0.546-0.543,0.929c0,0.626,0.381,1.053,1.143,1.279l2.121,0.62
		C217.361,59.93,217.744,60.505,217.744,61.307z"/>
	<path d="M224.875,61.307c0,0.772-0.271,1.354-0.813,1.747c-0.477,0.349-1.116,0.523-1.918,0.523c-1.611,0-2.541-0.684-2.787-2.051
		l0.705-0.361c0,1.178,0.693,1.767,2.082,1.767c0.521,0,0.973-0.118,1.355-0.355c0.446-0.278,0.67-0.662,0.67-1.152
		c0-0.65-0.381-1.093-1.143-1.33l-2.122-0.665c-0.769-0.355-1.152-0.938-1.152-1.747c0-0.619,0.263-1.102,0.787-1.447
		c0.443-0.291,0.968-0.437,1.573-0.437c1.375,0,2.254,0.552,2.641,1.655l-0.655,0.35c-0.291-0.907-0.952-1.36-1.985-1.36
		c-0.423,0-0.793,0.103-1.111,0.31c-0.362,0.237-0.543,0.546-0.543,0.929c0,0.626,0.381,1.053,1.143,1.279l2.121,0.62
		C224.491,59.93,224.875,60.505,224.875,61.307z"/>
	<path d="M227.579,63.388h-0.706v-7.401h0.706V63.388z"/>
	<path d="M236.023,59.688c0,1.076-0.257,1.97-0.771,2.68c-0.578,0.806-1.389,1.208-2.432,1.208c-1.031,0-1.839-0.403-2.421-1.208
		c-0.521-0.714-0.782-1.607-0.782-2.68c0-1.076,0.258-1.97,0.771-2.68c0.579-0.806,1.39-1.208,2.432-1.208
		c1.033,0,1.84,0.403,2.422,1.208C235.764,57.721,236.023,58.615,236.023,59.688z M235.313,59.688c0-0.866-0.192-1.597-0.578-2.193
		c-0.457-0.701-1.095-1.051-1.914-1.051c-0.815,0-1.449,0.347-1.903,1.041c-0.396,0.606-0.594,1.34-0.594,2.203
		c0,0.866,0.194,1.597,0.583,2.193c0.457,0.701,1.096,1.051,1.914,1.051c0.816,0,1.451-0.347,1.904-1.041
		C235.117,61.285,235.313,60.55,235.313,59.688z"/>
	<path d="M243.748,63.388h-0.695l-4.254-6.219v6.219h-0.705v-7.401h0.695l4.254,6.219v-6.219h0.705V63.388z"/>
	<path d="M251.848,63.388h-0.695l-4.254-6.219v6.219h-0.705v-7.401h0.695l4.254,6.219v-6.219h0.705V63.388z"/>
	<path d="M259.197,63.388h-5.062v-7.401h4.843v0.645h-4.137v2.62h3.736v0.645h-3.736v2.848h4.355V63.388z"/>
	<path d="M266.027,63.388h-4.792v-7.401h0.706v6.757h4.086V63.388z"/>
	<path d="M272.898,61.307c0,0.772-0.271,1.354-0.813,1.747c-0.477,0.349-1.116,0.523-1.918,0.523c-1.611,0-2.541-0.684-2.787-2.051
		l0.705-0.361c0,1.178,0.693,1.767,2.082,1.767c0.521,0,0.973-0.118,1.355-0.355c0.446-0.278,0.67-0.662,0.67-1.152
		c0-0.65-0.381-1.093-1.143-1.33l-2.122-0.665c-0.769-0.355-1.152-0.938-1.152-1.747c0-0.619,0.263-1.102,0.787-1.447
		c0.443-0.291,0.968-0.437,1.573-0.437c1.375,0,2.254,0.552,2.641,1.655l-0.655,0.35c-0.291-0.907-0.952-1.36-1.985-1.36
		c-0.423,0-0.793,0.103-1.111,0.31c-0.362,0.237-0.543,0.546-0.543,0.929c0,0.626,0.381,1.053,1.143,1.279l2.121,0.62
		C272.515,59.93,272.898,60.505,272.898,61.307z"/>
	<path d="M284.169,63.388h-0.762l-0.832-2.224h-3.254l-0.884,2.224h-0.726l3.016-7.401h0.568L284.169,63.388z M282.347,60.581
		l-1.371-3.65l-1.416,3.65H282.347z"/>
	<path d="M295.882,63.388h-0.706v-6.051l-2.33,6.051h-0.477l-2.33-6.051v6.051h-0.706v-7.401h0.863l2.401,6.193l2.421-6.193h0.863
		V63.388z"/>
	<path d="M303.834,63.388h-0.762l-0.832-2.224h-3.254l-0.884,2.224h-0.726l3.016-7.401h0.568L303.834,63.388z M302.012,60.581
		l-1.371-3.65l-1.416,3.65H302.012z"/>
	<path d="M311.223,59.688c0,0.955-0.218,1.765-0.654,2.432c-0.556,0.846-1.378,1.269-2.468,1.269h-2.71v-7.401h2.908
		c1.025,0,1.795,0.413,2.31,1.239C311.019,57.882,311.223,58.703,311.223,59.688z M310.518,59.688c0-0.809-0.168-1.487-0.503-2.036
		c-0.409-0.68-1.012-1.021-1.807-1.021h-2.112v6.112h1.965c0.85,0,1.487-0.322,1.913-0.965
		C310.336,61.234,310.518,60.537,310.518,59.688z"/>
	<path d="M318.866,63.388h-0.762l-0.832-2.224h-3.254l-0.884,2.224h-0.726l3.016-7.401h0.568L318.866,63.388z M317.044,60.581
		l-1.371-3.65l-1.416,3.65H317.044z"/>
	<path d="M326.179,57.662l-0.675,0.36c-0.346-1.052-1.034-1.579-2.066-1.579c-0.88,0-1.563,0.347-2.051,1.041
		c-0.423,0.603-0.635,1.337-0.635,2.203s0.195,1.597,0.584,2.193c0.457,0.701,1.095,1.051,1.914,1.051
		c0.748,0,1.323-0.26,1.726-0.782c0.339-0.437,0.508-0.969,0.508-1.599v-0.406h-2.741V59.5h3.366v3.889h-0.625v-1.071
		c-0.173,0.423-0.478,0.747-0.914,0.97c-0.382,0.193-0.822,0.29-1.319,0.29c-1.069,0-1.887-0.395-2.452-1.183
		c-0.501-0.693-0.751-1.596-0.751-2.706c0-1.08,0.271-1.978,0.813-2.696c0.602-0.795,1.444-1.193,2.527-1.193
		C324.703,55.799,325.634,56.42,326.179,57.662z"/>
	<path d="M333.898,63.388h-0.762l-0.832-2.224h-3.254l-0.884,2.224h-0.726l3.016-7.401h0.568L333.898,63.388z M332.076,60.581
		l-1.371-3.65l-1.416,3.65H332.076z"/>
	<path d="M340.557,61.307c0,0.772-0.271,1.354-0.813,1.747c-0.478,0.349-1.117,0.523-1.919,0.523c-1.611,0-2.54-0.684-2.787-2.051
		l0.706-0.361c0,1.178,0.693,1.767,2.081,1.767c0.521,0,0.973-0.118,1.355-0.355c0.446-0.278,0.67-0.662,0.67-1.152
		c0-0.65-0.381-1.093-1.142-1.33l-2.122-0.665c-0.769-0.355-1.152-0.938-1.152-1.747c0-0.619,0.262-1.102,0.786-1.447
		c0.443-0.291,0.969-0.437,1.574-0.437c1.374,0,2.254,0.552,2.64,1.655l-0.655,0.35c-0.291-0.907-0.952-1.36-1.984-1.36
		c-0.423,0-0.794,0.103-1.112,0.31c-0.361,0.237-0.543,0.546-0.543,0.929c0,0.626,0.381,1.053,1.143,1.279l2.122,0.62
		C340.172,59.93,340.557,60.505,340.557,61.307z"/>
	<path d="M348.261,61.723c-0.478,1.235-1.439,1.853-2.889,1.853c-1.09,0-1.906-0.388-2.451-1.163
		c-0.475-0.673-0.711-1.582-0.711-2.726c0-1.316,0.314-2.315,0.944-2.995c0.555-0.596,1.275-0.894,2.162-0.894
		c0.755,0,1.358,0.146,1.813,0.437c0.467,0.298,0.845,0.791,1.132,1.478l-0.705,0.35c-0.177-0.575-0.431-0.989-0.762-1.241
		c-0.332-0.252-0.799-0.378-1.401-0.378c-0.863,0-1.51,0.338-1.939,1.015c-0.358,0.568-0.538,1.312-0.538,2.229
		c0,2.163,0.863,3.244,2.589,3.244c1.026,0,1.72-0.523,2.082-1.568L348.261,61.723z"/>
	<path d="M355.675,63.388h-0.762l-0.832-2.224h-3.254l-0.884,2.224h-0.726l3.016-7.401h0.568L355.675,63.388z M353.853,60.581
		l-1.371-3.65l-1.416,3.65H353.853z"/>
	<path d="M362.708,63.388h-0.894l-2.35-3.284h-1.686v3.284h-0.706v-7.401h3.274c0.653,0,1.175,0.179,1.563,0.538
		c0.399,0.369,0.6,0.875,0.6,1.518c0,0.649-0.202,1.154-0.604,1.513c-0.389,0.345-0.912,0.518-1.568,0.518L362.708,63.388z
		 M361.805,58.043c0-0.941-0.572-1.412-1.716-1.412h-2.31v2.828h2.198C361.195,59.459,361.805,58.987,361.805,58.043z"/>
</g>
<path stroke="#000000" stroke-miterlimit="10" d="M64.75,17.68c3.885,10.601-0.622,21.697-10.783,26.539
	c-9.665,4.606-22.694-0.237-26.834-10.169c-0.295-0.708-0.956-2.227-0.28-0.604c4.018,9.639,12.161,15.908,23.035,14.555
	C63.259,46.338,70.052,31.799,65.69,19.9C65.432,19.192,64.952,18.233,64.75,17.68L64.75,17.68z"/>
<path fill="#FFDD00" stroke="#FFDD00" stroke-miterlimit="10" d="M27.478,34.901C23.98,24.419,28.514,13.662,38.479,8.914
	c10.497-5.002,22.646,0.902,27.207,10.989c-0.243-0.538-0.619-1.538-0.93-2.225C60.16,7.513,49.359,2.631,38.729,6.121
	C27.771,9.718,23.034,22.182,26.508,32.596C26.771,33.386,27.215,34.114,27.478,34.901L27.478,34.901z"/>
<path fill="#FFDD00" d="M58.886,33.994c0.753,1.967-2.44,5.771-7.442,7.687c-5.002,1.916-9.919,1.216-10.673-0.751
	c-0.753-1.967,4.644-1.029,9.646-2.944S58.132,32.026,58.886,33.994z"/>
</svg>
